<svg
  xmlns="http://www.w3.org/2000/svg"
  width="512"
  height="512"
  viewBox="0 0 32 32"
  version="1.1"
>
  <style>
    @media (prefers-color-scheme: light) {
      :root { filter: none; }
    }
    @media (prefers-color-scheme: dark) {
      :root { filter: none; }
    }
  </style>

  <path
    d="m16.018 31.677c8.6026 0 15.576-6.9734 15.576-15.576
       0-8.6026-6.9734-15.576-15.576-15.576
       -8.6026 0-15.576 6.9734-15.576 15.576
       0 8.6026 6.9734 15.576 15.576 15.576"
    fill="#5b2ca0"
  />

  <g transform="matrix(1.1 0 0 1.1 2.8184 2.9012)">
    <path
      d="m14.111 4.1198a1.0641 1.0641 0 0 1 0.75198 1.3025
         l-3.6719 13.706a1.0643 1.0643 0 0 1-2.0559-0.55192
         l3.6734-13.704a1.0641 1.0641 0 0 1 1.3025-0.75198
         m2.1027 2.8717a1.0641 1.0641 0 0 1 1.504 0
         l0.29654 0.29512c0.90096 0.90096 1.6529 1.6529
         2.1694 2.3297 0.54483 0.71509 0.92792 1.4699
         0.92792 2.3836s-0.38308 1.6685-0.92792 2.3836
         c-0.51646 0.67678-1.2684 1.4288-2.1708 2.3297
         l-0.29512 0.29512a1.0641 1.0641 0 1 1-1.504-1.504
         l0.24262-0.24404c0.96764-0.96764 1.616-1.6175
         2.0346-2.168 0.40153-0.52497 0.49234-0.83144
         0.49234-1.0925s-0.0908-0.56753-0.49234-1.0925
         c-0.41856-0.54909-1.067-1.2003-2.0346-2.168
         l-0.24262-0.24404a1.0641 1.0641 0 0 1 0-1.504
         m-9.9318 0a1.0641 1.0641 0 0 1 1.504 1.504
         l-0.24262 0.24404c-0.96764 0.96764-1.6146 1.6175
         -2.0346 2.168-0.40153 0.52497-0.49092 0.83144
         -0.49092 1.0925s0.089387 0.56753 0.49092 1.0925
         c0.41997 0.54909 1.067 1.2003 2.0346 2.168
         l0.24404 0.24404a1.0641 1.0641 0 1 1-1.5054 1.504
         l-0.29512-0.29512c-0.90238-0.90096-1.6544-1.6529
         -2.1708-2.3297-0.54483-0.71509-0.9265-1.4699
         -0.9265-2.3836s0.38308-1.6685 0.9265-2.3836
         c0.51645-0.67678 1.2684-1.4288 2.1708-2.3297z"
      fill="#ffffff"
    />
  </g>
</svg>
